<svg width="305" height="200" viewBox="0 0 305 200" fill="none" xmlns="http://www.w3.org/2000/svg">
<g clip-path="url(#clip0_836_2076)">
<path d="M14.9404 184.38C15.068 189.455 15.8661 194.486 17.3112 199.324C17.3432 199.436 17.3788 199.546 17.4134 199.659H26.26C26.2507 199.558 26.2411 199.446 26.2318 199.324C25.642 192.1 29.0117 148.657 33.078 141.138C32.7217 141.748 14.2545 161.426 14.9404 184.38Z" fill="#F1F1F1"/>
<path d="M15.6042 199.324C15.6782 199.436 15.7551 199.548 15.8339 199.659H22.4708C22.4205 199.563 22.3622 199.451 22.2946 199.324C21.1983 197.216 17.9532 190.913 14.941 184.38C11.7052 177.359 8.73397 170.071 8.98418 167.434C8.90665 168.028 6.66658 186.163 15.6042 199.324Z" fill="#F1F1F1"/>
<path d="M208.659 41.1526C208.913 41.8197 209.3 42.4196 209.795 42.91C210.289 43.4004 210.878 43.7693 211.521 43.9908C212.164 44.2124 212.844 44.2811 213.514 44.1921C214.185 44.1032 214.829 43.8587 215.401 43.476L228.209 54.4213L229.002 45.3706L216.717 36.3644C216.05 35.3833 215.068 34.6969 213.958 34.4355C212.847 34.174 211.685 34.3556 210.692 34.9458C209.699 35.536 208.943 36.4938 208.569 37.6377C208.194 38.7817 208.226 40.0323 208.659 41.1526Z" fill="#C89FA5"/>
<path d="M228.495 44.5208L223.715 40.9225L218.292 47.5966L224.6 51.5789L228.495 44.5208Z" fill="#2B308B"/>
<path d="M227.448 42.0805L243.559 48.6842L259.068 37.8659C260.671 36.7478 262.601 36.2893 264.498 36.576C266.395 36.8628 268.129 37.8752 269.376 39.4242C270.624 40.9731 271.299 42.9528 271.277 44.9936C271.255 47.0344 270.536 48.9968 269.255 50.5144L269.116 50.6785L245.263 64.3025L219.208 51.6223L227.448 42.0805Z" fill="#3F3D56"/>
<path d="M222.906 198.976H55.0282L61.1154 72.355H87.3864L111.611 90.4437H228.994L222.906 198.976Z" fill="#E5E5E5"/>
<path d="M181.811 160.363L84.7798 117.793C84.4406 117.644 84.1708 117.358 84.0297 116.997C83.8885 116.636 83.8875 116.23 84.0269 115.868L127.994 2.13728C128.134 1.77591 128.403 1.48852 128.742 1.33816C129.08 1.18779 129.461 1.18673 129.801 1.33521L226.832 43.9045C227.171 44.0539 227.441 44.3404 227.582 44.7013C227.724 45.0623 227.725 45.4681 227.585 45.8298L183.618 159.561C183.478 159.922 183.209 160.209 182.87 160.36C182.532 160.51 182.151 160.511 181.811 160.363Z" fill="white"/>
<path d="M181.811 160.363L84.7798 117.793C84.4406 117.644 84.1708 117.358 84.0297 116.997C83.8885 116.636 83.8875 116.23 84.0269 115.868L127.994 2.13728C128.134 1.77591 128.403 1.48852 128.742 1.33816C129.08 1.18779 129.461 1.18673 129.801 1.33521L226.832 43.9045C227.171 44.0539 227.441 44.3404 227.582 44.7013C227.724 45.0623 227.725 45.4681 227.585 45.8298L183.618 159.561C183.478 159.922 183.209 160.209 182.87 160.36C182.532 160.51 182.151 160.511 181.811 160.363ZM129.59 1.88068C129.386 1.79158 129.158 1.79221 128.954 1.88243C128.751 1.97265 128.59 2.14509 128.506 2.36193L84.539 116.093C84.4553 116.31 84.4559 116.553 84.5406 116.77C84.6253 116.986 84.7872 117.158 84.9907 117.248L182.022 159.817C182.226 159.906 182.454 159.906 182.658 159.816C182.861 159.725 183.022 159.553 183.106 159.336L227.073 45.6052C227.157 45.3882 227.156 45.1446 227.071 44.9281C226.987 44.7115 226.825 44.5396 226.621 44.45L129.59 1.88068Z" fill="#3F3D56"/>
<path d="M156.995 57.6336L132.929 47.0755C132.59 46.9262 132.32 46.6397 132.179 46.2787C132.038 45.9178 132.037 45.512 132.177 45.1502L142.088 19.5131C142.228 19.1517 142.497 18.8643 142.836 18.7139C143.174 18.5636 143.555 18.5625 143.895 18.711L167.961 29.2691C168.3 29.4184 168.57 29.705 168.711 30.0659C168.852 30.4268 168.853 30.8327 168.714 31.1944L158.803 56.8315C158.662 57.1929 158.393 57.4803 158.055 57.6307C157.716 57.781 157.335 57.7821 156.995 57.6336ZM143.684 19.2565C143.48 19.1674 143.252 19.168 143.048 19.2582C142.845 19.3484 142.684 19.5209 142.6 19.7377L132.689 45.3749C132.605 45.5919 132.606 45.8354 132.69 46.052C132.775 46.2685 132.937 46.4405 133.14 46.5301L157.206 57.0881C157.41 57.1772 157.638 57.1766 157.842 57.0864C158.045 56.9962 158.206 56.8237 158.291 56.6069L168.201 30.9697C168.285 30.7527 168.285 30.5092 168.2 30.2926C168.115 30.0761 167.953 29.9041 167.75 29.8146L143.684 19.2565Z" fill="#F2F2F2"/>
<path d="M148.87 57.7375L124.804 47.1794C124.499 47.045 124.256 46.7871 124.129 46.4623C124.002 46.1374 124.001 45.7722 124.127 45.4466L134.038 19.8095C134.164 19.4842 134.406 19.2256 134.711 19.0902C135.016 18.9549 135.359 18.9539 135.664 19.0876L159.73 29.6457C160.035 29.7801 160.278 30.038 160.405 30.3628C160.532 30.6876 160.533 31.0529 160.408 31.3784L150.497 57.0156C150.371 57.3409 150.129 57.5995 149.824 57.7348C149.519 57.8702 149.176 57.8711 148.87 57.7375Z" fill="#2B308B"/>
<path d="M195.224 92.7473L119.954 59.7252C119.803 59.6588 119.666 59.5614 119.55 59.4384C119.434 59.3154 119.342 59.1692 119.279 59.0083C119.216 58.8474 119.183 58.6749 119.183 58.5006C119.183 58.3263 119.214 58.1536 119.277 57.9925C119.339 57.8313 119.431 57.6848 119.546 57.5613C119.661 57.4378 119.799 57.3397 119.95 57.2727C120.101 57.2056 120.263 57.171 120.426 57.1706C120.59 57.1702 120.752 57.2042 120.903 57.2706L196.173 90.2927C196.479 90.4268 196.722 90.6846 196.849 91.0096C196.976 91.3345 196.976 91.7 196.851 92.0255C196.725 92.351 196.483 92.6099 196.178 92.7453C195.873 92.8806 195.53 92.8814 195.224 92.7473Z" fill="#CCCCCC"/>
<path d="M173.778 93.2274L116.686 68.18C116.535 68.1136 116.397 68.0161 116.281 67.8931C116.165 67.7701 116.073 67.624 116.01 67.4631C115.947 67.3022 115.915 67.1297 115.914 66.9554C115.914 66.7811 115.946 66.6084 116.008 66.4472C116.071 66.2861 116.162 66.1395 116.278 66.016C116.393 65.8925 116.53 65.7945 116.681 65.7274C116.832 65.6604 116.994 65.6257 117.158 65.6254C117.321 65.625 117.484 65.659 117.635 65.7254L174.727 90.7728C175.033 90.9068 175.276 91.1647 175.403 91.4896C175.53 91.8146 175.531 92.18 175.405 92.5055C175.279 92.831 175.037 93.0899 174.732 93.2253C174.427 93.3607 174.084 93.3614 173.778 93.2274Z" fill="#CCCCCC"/>
<path d="M206.988 61.5431L173.705 46.9415C173.554 46.8751 173.416 46.7777 173.3 46.6547C173.185 46.5317 173.092 46.3855 173.03 46.2246C172.967 46.0637 172.934 45.8912 172.934 45.7169C172.933 45.5426 172.965 45.3699 173.028 45.2088C173.09 45.0476 173.181 44.9011 173.297 44.7776C173.412 44.6541 173.549 44.556 173.701 44.489C173.852 44.4219 174.014 44.3873 174.177 44.3869C174.341 44.3865 174.503 44.4205 174.654 44.4869L207.937 59.0885C208.242 59.2226 208.485 59.4804 208.612 59.8054C208.739 60.1303 208.74 60.4958 208.614 60.8213C208.488 61.1468 208.246 61.4057 207.941 61.5411C207.636 61.6764 207.293 61.6772 206.988 61.5431Z" fill="#CCCCCC"/>
<path d="M195.413 66.3538L170.437 55.3963C170.131 55.2622 169.888 55.0044 169.761 54.6794C169.634 54.3545 169.633 53.989 169.759 53.6635C169.885 53.338 170.127 53.0791 170.432 52.9437C170.737 52.8084 171.08 52.8076 171.386 52.9417L196.362 63.8992C196.668 64.0333 196.911 64.2911 197.038 64.6161C197.165 64.9411 197.165 65.3065 197.04 65.632C196.914 65.9575 196.672 66.2164 196.367 66.3518C196.062 66.4871 195.719 66.4879 195.413 66.3538Z" fill="#CCCCCC"/>
<path d="M188.687 109.657L113.417 76.6348C113.266 76.5684 113.129 76.471 113.013 76.348C112.897 76.225 112.805 76.0788 112.742 75.9179C112.679 75.757 112.646 75.5845 112.646 75.4102C112.646 75.2359 112.677 75.0632 112.74 74.9021C112.802 74.7409 112.894 74.5944 113.009 74.4709C113.124 74.3474 113.262 74.2493 113.413 74.1823C113.564 74.1152 113.726 74.0806 113.889 74.0802C114.053 74.0798 114.215 74.1138 114.366 74.1802L189.636 107.202C189.941 107.336 190.185 107.594 190.312 107.919C190.439 108.244 190.439 108.61 190.314 108.935C190.188 109.261 189.946 109.519 189.641 109.655C189.336 109.79 188.993 109.791 188.687 109.657Z" fill="#CCCCCC"/>
<path d="M167.241 110.137L110.149 85.0896C109.998 85.0233 109.86 84.9258 109.744 84.8028C109.628 84.6798 109.536 84.5337 109.473 84.3728C109.41 84.2119 109.378 84.0393 109.377 83.865C109.377 83.6907 109.409 83.5181 109.471 83.3569C109.533 83.1957 109.625 83.0492 109.74 82.9257C109.856 82.8022 109.993 82.7041 110.144 82.6371C110.295 82.5701 110.457 82.5354 110.621 82.535C110.784 82.5347 110.946 82.5687 111.098 82.635L168.19 107.682C168.341 107.749 168.479 107.846 168.595 107.969C168.711 108.092 168.803 108.238 168.866 108.399C168.929 108.56 168.961 108.733 168.962 108.907C168.962 109.081 168.93 109.254 168.868 109.415C168.805 109.576 168.714 109.723 168.598 109.846C168.483 109.97 168.346 110.068 168.195 110.135C168.044 110.202 167.882 110.237 167.718 110.237C167.554 110.237 167.392 110.203 167.241 110.137Z" fill="#CCCCCC"/>
<path d="M182.15 126.567L106.88 93.5444C106.575 93.4104 106.332 93.1525 106.205 92.8276C106.078 92.5026 106.077 92.1372 106.203 91.8117C106.329 91.4862 106.571 91.2273 106.876 91.0919C107.181 90.9565 107.524 90.9558 107.829 91.0898L183.099 124.112C183.405 124.246 183.648 124.504 183.775 124.829C183.902 125.154 183.902 125.519 183.777 125.845C183.651 126.17 183.409 126.429 183.104 126.564C182.799 126.7 182.456 126.701 182.15 126.567Z" fill="#CCCCCC"/>
<path d="M178.881 135.021L103.612 101.999C103.306 101.865 103.063 101.607 102.936 101.282C102.809 100.957 102.808 100.592 102.934 100.267C103.06 99.941 103.302 99.6821 103.607 99.5467C103.912 99.4113 104.255 99.4106 104.561 99.5446L179.83 132.567C179.982 132.633 180.119 132.731 180.235 132.854C180.351 132.977 180.443 133.123 180.506 133.284C180.569 133.445 180.602 133.617 180.602 133.791C180.602 133.966 180.57 134.138 180.508 134.3C180.446 134.461 180.354 134.607 180.239 134.731C180.123 134.854 179.986 134.952 179.835 135.019C179.684 135.086 179.522 135.121 179.358 135.121C179.195 135.122 179.033 135.088 178.881 135.021Z" fill="#CCCCCC"/>
<path d="M142.161 134.393C143.668 134.478 145.178 134.429 146.677 134.247C148.027 134.078 149.432 133.847 150.615 133.091C151.127 132.78 151.563 132.345 151.887 131.821C152.211 131.297 152.414 130.699 152.48 130.076C152.533 129.483 152.406 128.887 152.12 128.376C151.833 127.864 151.401 127.463 150.887 127.23C150.364 126.996 149.792 126.917 149.231 127C148.67 127.084 148.14 127.328 147.698 127.706C147.226 128.143 146.853 128.687 146.606 129.299C146.359 129.911 146.245 130.574 146.273 131.239C146.335 133.971 148.364 136.669 150.617 137.805C153.155 139.085 156.62 137.998 157.27 134.846C157.405 134.19 156.567 133.962 156.217 134.384C155.738 134.945 155.479 135.681 155.493 136.439C155.506 137.197 155.791 137.922 156.288 138.464C156.786 139.007 157.46 139.326 158.171 139.357C158.882 139.388 159.578 139.129 160.116 138.632L159.173 138.218C159.447 139.442 160.019 140.567 160.831 141.481C161.643 142.395 162.666 143.064 163.798 143.423C164.357 143.601 164.936 143.695 165.519 143.702C166.228 143.704 166.956 144.083 167.634 144.318L172.518 146.013C173.236 146.263 173.692 145.101 172.968 144.849L168.544 143.314C167.807 143.059 167.072 142.796 166.333 142.547C165.804 142.369 165.226 142.465 164.675 142.361C163.643 142.153 162.688 141.636 161.921 140.872C161.154 140.108 160.607 139.128 160.343 138.045C160.327 137.937 160.285 137.836 160.222 137.75C160.158 137.664 160.075 137.598 159.981 137.556C159.886 137.515 159.783 137.5 159.681 137.513C159.579 137.526 159.483 137.567 159.4 137.631C159.091 137.944 158.678 138.115 158.252 138.105C157.825 138.096 157.42 137.908 157.123 137.581C156.826 137.255 156.663 136.817 156.668 136.362C156.673 135.908 156.846 135.474 157.15 135.155L156.097 134.693C155.678 136.726 153.349 137.489 151.671 136.901C149.795 136.244 148.182 134.33 147.622 132.326C147.472 131.845 147.418 131.336 147.461 130.83C147.504 130.325 147.645 129.835 147.874 129.39C148.078 128.985 148.397 128.658 148.785 128.455C149.173 128.253 149.611 128.185 150.037 128.262C150.417 128.319 150.762 128.532 150.998 128.854C151.234 129.177 151.343 129.585 151.302 129.992C151.24 130.45 151.073 130.885 150.815 131.257C150.558 131.63 150.219 131.93 149.827 132.13C148.771 132.734 147.506 132.885 146.333 133.022C144.996 133.177 143.649 133.217 142.305 133.144C141.551 133.103 141.399 134.352 142.161 134.393Z" fill="#2B308B"/>
<path d="M222.906 98.9761V198.976H55.0282V80.8874H81.2992L105.523 98.9761H222.906Z" fill="white"/>
<path d="M133.841 180.205H65.2802V186.007H133.841V180.205Z" fill="#2B308B"/>
<path d="M99.5606 168.942H65.2802V174.744H99.5606V168.942Z" fill="#2B308B"/>
<path d="M223.227 199.317H54.7078V80.5461H81.4002L105.625 98.6348H223.227V199.317ZM55.3485 198.635H222.586V99.3174H105.423L81.1981 81.2287H55.3485V198.635Z" fill="#3F3D56"/>
<path d="M291.27 187.248L285.59 189.41L275.056 167.098L283.44 163.906L291.27 187.248Z" fill="#C89FA5"/>
<path d="M276.371 199.535L276.288 199.288C275.614 197.274 275.719 195.057 276.578 193.125C277.436 191.192 278.98 189.701 280.869 188.979L292.056 184.72L294.687 192.562L276.371 199.535Z" fill="#2F2E41"/>
<path d="M254.332 193.233H248.299L245.43 168.446L254.333 168.446L254.332 193.233Z" fill="#C89FA5"/>
<path d="M255.87 199.462L236.419 199.461V199.199C236.419 198.14 236.615 197.091 236.995 196.113C237.376 195.134 237.934 194.245 238.637 193.496C239.34 192.748 240.174 192.154 241.093 191.748C242.011 191.343 242.996 191.134 243.99 191.134H243.99L255.87 191.135L255.87 199.462Z" fill="#2F2E41"/>
<path d="M268.079 34.8759L265.456 29.3536C265.456 29.3536 255.683 31.962 254.794 37.9962L268.079 34.8759Z" fill="#2B308B"/>
<path d="M278.904 98.0198L271.77 140.432L290.713 176.122L279.396 180.839L260.207 146.244L257.747 136.809L256.27 186.081L246.064 185.751L241.384 139.742L248.89 96.9717L278.904 98.0198Z" fill="#2F2E41"/>
<path d="M277.428 78.8584L277.181 53.9876C277.181 43.447 270.669 35.678 269.766 34.9593C269.342 33.5153 268.58 32.5171 267.502 31.9948C265.331 30.9467 262.676 32.2044 262.564 32.261L254.6 35.4418L254.562 35.5582C254.478 35.8244 246.442 63.9159 244.424 70.9662C244.137 71.9777 243.971 72.5567 243.971 72.5567C243.971 72.5567 244.003 74.187 244.059 76.7223C244.237 85.4395 244.658 104.857 244.827 105.672C244.827 105.672 259.538 108.048 265.362 108.048C275.841 108.048 282.497 105.912 282.647 105.875L282.887 105.822L277.428 78.8584Z" fill="#3F3D56"/>
<path d="M262.472 26.2091C267.69 23.1705 269.608 16.2011 266.755 10.6425C263.903 5.08394 257.361 3.04106 252.143 6.07964C246.925 9.11822 245.007 16.0876 247.86 21.6462C250.712 27.2048 257.254 29.2477 262.472 26.2091Z" fill="#C89FA5"/>
<path opacity="0.2" d="M258.501 73.5947L244.059 76.7223C244.003 74.187 243.971 72.5567 243.971 72.5567C243.971 72.5567 244.137 71.9777 244.424 70.9662L258.501 73.5947Z" fill="black"/>
<path d="M215.733 70.3164C216.246 70.7848 216.849 71.1277 217.499 71.321C218.15 71.5143 218.833 71.5532 219.499 71.4351C220.165 71.317 220.799 71.0447 221.356 70.6373C221.913 70.23 222.379 69.6975 222.722 69.0775L238.821 72.5226L235.618 64.0971L220.821 62.1173C219.805 61.5729 218.637 61.4444 217.538 61.7562C216.439 62.068 215.486 62.7984 214.859 63.809C214.231 64.8197 213.974 66.0403 214.135 67.2397C214.296 68.439 214.865 69.5337 215.733 70.3164Z" fill="#C89FA5"/>
<path d="M234.801 63.5908L229.002 62.7372L227.068 71.3201L234.388 71.7665L234.801 63.5908Z" fill="#2B308B"/>
<path d="M232.818 61.9366L249.975 59.9089L259.078 42.7048C260.018 40.9268 261.534 39.5743 263.342 38.8998C265.151 38.2252 267.127 38.2748 268.904 39.0392C270.68 39.8036 272.135 41.2307 272.996 43.0538C273.857 44.877 274.066 46.9717 273.583 48.9469L273.531 49.1606L258.229 72.9435L229.619 74.4466L232.818 61.9366Z" fill="#3F3D56"/>
<path d="M266.479 26.1033L257.542 26.445C256.997 26.4659 255.519 20.2029 255.325 18.9037C255.172 18.0578 254.735 17.3002 254.097 16.7723C253.458 16.2445 252.66 15.9824 251.853 16.0351C251.184 16.1025 249.497 14.771 247.756 13.1945C244.451 10.2013 244.623 4.57978 248.254 2.05057C248.353 1.98145 248.45 1.91833 248.546 1.86122C250.836 0.495647 253.515 0.0370718 256.14 0.00210248C258.519 -0.0295972 260.965 0.289393 263.061 1.48897C266.819 3.63956 268.818 8.3392 268.994 12.8793C269.17 17.4195 267.803 21.8589 266.253 26.0921" fill="#2F2E41"/>
<path d="M304.68 200H0.320378C0.235409 200 0.153919 199.964 0.0938363 199.9C0.0337538 199.836 0 199.749 0 199.659C0 199.568 0.0337538 199.481 0.0938363 199.417C0.153919 199.353 0.235409 199.317 0.320378 199.317H304.68C304.765 199.317 304.846 199.353 304.906 199.417C304.966 199.481 305 199.568 305 199.659C305 199.749 304.966 199.836 304.906 199.9C304.846 199.964 304.765 200 304.68 200Z" fill="#CBCBCB"/>
</g>
<defs>
<clipPath id="clip0_836_2076">
<rect width="305" height="200" fill="white"/>
</clipPath>
</defs>
</svg>
